<mxfile host="app.diagrams.net" modified="2023-08-16T13:44:19.404Z" agent="Mozilla/5.0 (Windows NT 10.0; Win64; x64) AppleWebKit/537.36 (KHTML, like Gecko) Chrome/115.0.0.0 Safari/537.36" etag="PfGuyKE39mdLKuoNBzx2" version="21.6.8" type="github">
  <diagram name="Page-1" id="dhCtrs8Qw_YC4Ahk7rUd">
    <mxGraphModel dx="1562" dy="990" grid="1" gridSize="10" guides="1" tooltips="1" connect="1" arrows="1" fold="1" page="1" pageScale="1" pageWidth="850" pageHeight="1100" math="0" shadow="0">
      <root>
        <mxCell id="0" />
        <mxCell id="1" parent="0" />
        <mxCell id="b4d6NElbvHdcSz12_6u4-4" value="" style="rounded=0;whiteSpace=wrap;html=1;dashed=1;dashPattern=1 2;" vertex="1" parent="1">
          <mxGeometry x="290" y="510" width="1540" height="1120" as="geometry" />
        </mxCell>
        <mxCell id="b4d6NElbvHdcSz12_6u4-47" value="" style="rounded=0;whiteSpace=wrap;html=1;dashed=1;dashPattern=1 2;" vertex="1" parent="1">
          <mxGeometry x="1200" y="710" width="400" height="920" as="geometry" />
        </mxCell>
        <mxCell id="b4d6NElbvHdcSz12_6u4-49" value="" style="rounded=0;whiteSpace=wrap;html=1;dashed=1;" vertex="1" parent="1">
          <mxGeometry x="1230" y="760" width="320" height="250" as="geometry" />
        </mxCell>
        <mxCell id="b4d6NElbvHdcSz12_6u4-50" value="" style="rounded=0;whiteSpace=wrap;html=1;dashed=1;" vertex="1" parent="1">
          <mxGeometry x="1230" y="1045" width="320" height="250" as="geometry" />
        </mxCell>
        <mxCell id="b4d6NElbvHdcSz12_6u4-51" value="" style="rounded=0;whiteSpace=wrap;html=1;dashed=1;" vertex="1" parent="1">
          <mxGeometry x="1230" y="1330" width="320" height="250" as="geometry" />
        </mxCell>
        <mxCell id="b4d6NElbvHdcSz12_6u4-52" value="GitHub Action Runners" style="whiteSpace=wrap;html=1;aspect=fixed;" vertex="1" parent="1">
          <mxGeometry x="1440" y="890" width="80" height="80" as="geometry" />
        </mxCell>
        <mxCell id="b4d6NElbvHdcSz12_6u4-54" value="GitHub Action Runners" style="whiteSpace=wrap;html=1;aspect=fixed;" vertex="1" parent="1">
          <mxGeometry x="1440" y="1350" width="80" height="80" as="geometry" />
        </mxCell>
        <mxCell id="b4d6NElbvHdcSz12_6u4-56" value="Local HW" style="whiteSpace=wrap;html=1;aspect=fixed;" vertex="1" parent="1">
          <mxGeometry x="1440" y="1470" width="80" height="80" as="geometry" />
        </mxCell>
        <mxCell id="b4d6NElbvHdcSz12_6u4-57" value="Local HW" style="whiteSpace=wrap;html=1;aspect=fixed;" vertex="1" parent="1">
          <mxGeometry x="1440" y="780" width="80" height="80" as="geometry" />
        </mxCell>
        <mxCell id="b4d6NElbvHdcSz12_6u4-59" value="GHES Active Geo-Replica" style="whiteSpace=wrap;html=1;aspect=fixed;" vertex="1" parent="1">
          <mxGeometry x="1280" y="1140" width="80" height="80" as="geometry" />
        </mxCell>
        <mxCell id="b4d6NElbvHdcSz12_6u4-64" value="" style="rounded=0;whiteSpace=wrap;html=1;dashed=1;dashPattern=1 2;" vertex="1" parent="1">
          <mxGeometry x="760" y="710" width="400" height="920" as="geometry" />
        </mxCell>
        <mxCell id="b4d6NElbvHdcSz12_6u4-65" value="" style="rounded=0;whiteSpace=wrap;html=1;dashed=1;" vertex="1" parent="1">
          <mxGeometry x="810" y="760" width="320" height="540" as="geometry" />
        </mxCell>
        <mxCell id="b4d6NElbvHdcSz12_6u4-66" value="" style="rounded=0;whiteSpace=wrap;html=1;dashed=1;" vertex="1" parent="1">
          <mxGeometry x="810" y="1330" width="320" height="250" as="geometry" />
        </mxCell>
        <mxCell id="b4d6NElbvHdcSz12_6u4-67" value="GitHub Action Runners" style="whiteSpace=wrap;html=1;aspect=fixed;" vertex="1" parent="1">
          <mxGeometry x="960" y="860" width="80" height="80" as="geometry" />
        </mxCell>
        <mxCell id="b4d6NElbvHdcSz12_6u4-68" value="GHES Primary" style="whiteSpace=wrap;html=1;aspect=fixed;" vertex="1" parent="1">
          <mxGeometry x="940" y="1030" width="80" height="80" as="geometry" />
        </mxCell>
        <mxCell id="b4d6NElbvHdcSz12_6u4-69" value="GHES Active Replica" style="whiteSpace=wrap;html=1;aspect=fixed;" vertex="1" parent="1">
          <mxGeometry x="960" y="1180" width="80" height="80" as="geometry" />
        </mxCell>
        <mxCell id="b4d6NElbvHdcSz12_6u4-70" value="Jenkins" style="rounded=1;whiteSpace=wrap;html=1;" vertex="1" parent="1">
          <mxGeometry x="820" y="1210" width="100" height="40" as="geometry" />
        </mxCell>
        <mxCell id="b4d6NElbvHdcSz12_6u4-71" value="BACK&lt;br&gt;UP" style="shape=cylinder3;whiteSpace=wrap;html=1;boundedLbl=1;backgroundOutline=1;size=15;" vertex="1" parent="1">
          <mxGeometry x="840" y="1030" width="40" height="80" as="geometry" />
        </mxCell>
        <mxCell id="b4d6NElbvHdcSz12_6u4-72" value="VDI" style="rounded=1;whiteSpace=wrap;html=1;" vertex="1" parent="1">
          <mxGeometry x="820" y="890" width="100" height="40" as="geometry" />
        </mxCell>
        <mxCell id="b4d6NElbvHdcSz12_6u4-73" value="VDI" style="rounded=1;whiteSpace=wrap;html=1;" vertex="1" parent="1">
          <mxGeometry x="1430" y="1080" width="100" height="40" as="geometry" />
        </mxCell>
        <mxCell id="b4d6NElbvHdcSz12_6u4-75" value="GHES Passive Replica" style="whiteSpace=wrap;html=1;aspect=fixed;" vertex="1" parent="1">
          <mxGeometry x="950" y="1440" width="80" height="80" as="geometry" />
        </mxCell>
        <mxCell id="b4d6NElbvHdcSz12_6u4-76" value="BACK&lt;br&gt;UP" style="shape=cylinder3;whiteSpace=wrap;html=1;boundedLbl=1;backgroundOutline=1;size=15;" vertex="1" parent="1">
          <mxGeometry x="850" y="1440" width="40" height="80" as="geometry" />
        </mxCell>
        <mxCell id="b4d6NElbvHdcSz12_6u4-78" value="Jenkins" style="rounded=1;whiteSpace=wrap;html=1;" vertex="1" parent="1">
          <mxGeometry x="1430" y="1210" width="100" height="40" as="geometry" />
        </mxCell>
      </root>
    </mxGraphModel>
  </diagram>
</mxfile>
